<svg width="47" height="54" viewBox="0 0 47 54" fill="none" xmlns="http://www.w3.org/2000/svg">
<path d="M24.3063 41.7373L46.666 16.6582C47.1113 16.1587 47.1113 15.3489 46.666 14.8496L44.5158 12.4379C44.3021 12.1979 44.012 12.0632 43.7096 12.0632C43.4072 12.0632 43.1171 12.1979 42.9034 12.4379L23.5001 34.2011L4.09673 12.4379C3.88297 12.1979 3.59289 12.0632 3.29049 12.0632C2.9881 12.0632 2.69802 12.1979 2.48426 12.4379L0.334053 14.8496C0.111477 15.0992 3.8147e-05 15.4266 3.8147e-05 15.7539C3.8147e-05 16.0811 0.111324 16.4085 0.334053 16.6582L22.6937 41.7373C23.139 42.2369 23.861 42.2369 24.3063 41.7373Z" fill="#231F20"/>
</svg>
