<svg width="30" height="27" viewBox="0 0 30 27" fill="none" xmlns="http://www.w3.org/2000/svg">
<g clip-path="url(#clip0_1_199)">
<path d="M28.3076 19.5945H1.12012C0.879765 19.5945 0.649257 19.6801 0.479302 19.8325C0.309347 19.9848 0.213867 20.1915 0.213867 20.407C0.213867 20.6225 0.309347 20.8291 0.479302 20.9815C0.649257 21.1339 0.879765 21.2195 1.12012 21.2195H28.3076C28.548 21.2195 28.7785 21.1339 28.9484 20.9815C29.1184 20.8291 29.2139 20.6225 29.2139 20.407C29.2139 20.1915 29.1184 19.9848 28.9484 19.8325C28.7785 19.6801 28.548 19.5945 28.3076 19.5945Z" fill="black"/>
<path d="M28.3076 11.4695H1.12012C0.879765 11.4695 0.649257 11.5551 0.479302 11.7075C0.309347 11.8598 0.213867 12.0665 0.213867 12.282C0.213867 12.4975 0.309347 12.7041 0.479302 12.8565C0.649257 13.0089 0.879765 13.0945 1.12012 13.0945H28.3076C28.548 13.0945 28.7785 13.0089 28.9484 12.8565C29.1184 12.7041 29.2139 12.4975 29.2139 12.282C29.2139 12.0665 29.1184 11.8598 28.9484 11.7075C28.7785 11.5551 28.548 11.4695 28.3076 11.4695Z" fill="black"/>
<path d="M28.3076 3.34448H1.12012C0.879765 3.34448 0.649257 3.43008 0.479302 3.58246C0.309347 3.73483 0.213867 3.94149 0.213867 4.15698C0.213867 4.37247 0.309347 4.57913 0.479302 4.73151C0.649257 4.88388 0.879765 4.96948 1.12012 4.96948H28.3076C28.548 4.96948 28.7785 4.88388 28.9484 4.73151C29.1184 4.57913 29.2139 4.37247 29.2139 4.15698C29.2139 3.94149 29.1184 3.73483 28.9484 3.58246C28.7785 3.43008 28.548 3.34448 28.3076 3.34448Z" fill="black"/>
</g>
<defs>
<clipPath id="clip0_1_199">
<rect width="29" height="26" fill="white" transform="matrix(1 0 0 -1 0.213867 26.0945)"/>
</clipPath>
</defs>
</svg>
