<svg width="87" height="30" viewBox="0 0 87 30" fill="none" xmlns="http://www.w3.org/2000/svg">
<path d="M15.68 18.37V29.65H11.02V18.37L0.5 0.850003H4.6C5.01334 0.850003 5.34 0.950003 5.58 1.15C5.82 1.35 6.02 1.60333 6.18 1.91L12.08 12.23C12.3466 12.75 12.5866 13.2433 12.8 13.71C13.0266 14.1767 13.2266 14.6367 13.4 15.09C13.5466 14.6233 13.7266 14.1633 13.94 13.71C14.1533 13.2433 14.3933 12.75 14.66 12.23L20.52 1.91C20.6533 1.64333 20.8466 1.40333 21.1 1.19C21.3533 0.963333 21.68 0.850003 22.08 0.850003H26.2L15.68 18.37ZM33.0756 8.93C34.5823 8.93 35.9423 9.17667 37.1556 9.67C38.3823 10.1633 39.4223 10.8633 40.2756 11.77C41.1423 12.6767 41.8089 13.7767 42.2756 15.07C42.7423 16.3633 42.9756 17.8167 42.9756 19.43C42.9756 21.0433 42.7423 22.4967 42.2756 23.79C41.8089 25.0833 41.1423 26.19 40.2756 27.11C39.4223 28.0167 38.3823 28.7167 37.1556 29.21C35.9423 29.7033 34.5823 29.95 33.0756 29.95C31.5556 29.95 30.1823 29.7033 28.9556 29.21C27.7423 28.7167 26.7023 28.0167 25.8356 27.11C24.9689 26.19 24.3023 25.0833 23.8356 23.79C23.3689 22.4967 23.1356 21.0433 23.1356 19.43C23.1356 17.8167 23.3689 16.3633 23.8356 15.07C24.3023 13.7767 24.9689 12.6767 25.8356 11.77C26.7023 10.8633 27.7423 10.1633 28.9556 9.67C30.1823 9.17667 31.5556 8.93 33.0756 8.93ZM33.0756 26.59C34.9156 26.59 36.2823 25.9767 37.1756 24.75C38.0823 23.51 38.5356 21.7433 38.5356 19.45C38.5356 17.1567 38.0823 15.39 37.1756 14.15C36.2823 12.8967 34.9156 12.27 33.0756 12.27C31.2089 12.27 29.8223 12.8967 28.9156 14.15C28.0089 15.39 27.5556 17.1567 27.5556 19.45C27.5556 21.7433 28.0089 23.51 28.9156 24.75C29.8223 25.9767 31.2089 26.59 33.0756 26.59ZM51.4072 0.0500031V17.21H52.3272C52.6205 17.21 52.8605 17.17 53.0472 17.09C53.2338 17.01 53.4272 16.8433 53.6272 16.59L59.3472 10.05C59.5472 9.7833 59.7672 9.58333 60.0072 9.45C60.2472 9.31667 60.5538 9.25 60.9272 9.25H64.8272L57.9472 17.01C57.5472 17.53 57.1072 17.9433 56.6272 18.25C56.8938 18.4367 57.1272 18.65 57.3272 18.89C57.5272 19.1167 57.7205 19.3767 57.9072 19.67L65.2472 29.65H61.4072C61.0605 29.65 60.7605 29.5967 60.5072 29.49C60.2672 29.37 60.0538 29.1567 59.8672 28.85L53.9672 20.85C53.7672 20.5433 53.5672 20.35 53.3672 20.27C53.1672 20.1767 52.8672 20.13 52.4672 20.13H51.4072V29.65H47.1072V0.0500031H51.4072ZM72.0656 13.03C72.7056 11.7367 73.4789 10.7233 74.3856 9.99C75.2923 9.24333 76.3789 8.87 77.6456 8.87C78.0856 8.87 78.4989 8.92333 78.8856 9.03C79.2723 9.12333 79.6189 9.27 79.9256 9.47L79.6256 12.71C79.5723 12.9367 79.4856 13.0967 79.3656 13.19C79.2589 13.27 79.1123 13.31 78.9256 13.31C78.7256 13.31 78.4389 13.2767 78.0656 13.21C77.6923 13.13 77.2989 13.09 76.8856 13.09C76.2856 13.09 75.7523 13.1767 75.2856 13.35C74.8323 13.5233 74.4189 13.7767 74.0456 14.11C73.6856 14.4433 73.3656 14.85 73.0856 15.33C72.8056 15.81 72.5456 16.3567 72.3056 16.97V29.65H68.0056V9.25H70.5056C70.9589 9.25 71.2723 9.33666 71.4456 9.51C71.6189 9.67 71.7389 9.9567 71.8056 10.37L72.0656 13.03ZM80.5487 27.17C80.5487 26.7833 80.6154 26.4233 80.7487 26.09C80.8954 25.7433 81.0887 25.4433 81.3287 25.19C81.582 24.9367 81.8754 24.7367 82.2087 24.59C82.5554 24.4433 82.922 24.37 83.3087 24.37C83.6954 24.37 84.0554 24.4433 84.3887 24.59C84.7354 24.7367 85.0354 24.9367 85.2887 25.19C85.542 25.4433 85.742 25.7433 85.8887 26.09C86.0354 26.4233 86.1087 26.7833 86.1087 27.17C86.1087 27.57 86.0354 27.9367 85.8887 28.27C85.742 28.6033 85.542 28.8967 85.2887 29.15C85.0354 29.4033 84.7354 29.5967 84.3887 29.73C84.0554 29.8767 83.6954 29.95 83.3087 29.95C82.922 29.95 82.5554 29.8767 82.2087 29.73C81.8754 29.5967 81.582 29.4033 81.3287 29.15C81.0887 28.8967 80.8954 28.6033 80.7487 28.27C80.6154 27.9367 80.5487 27.57 80.5487 27.17Z" fill="black"/>
</svg>
