<svg width="87" height="31" viewBox="0 0 87 31" fill="none" xmlns="http://www.w3.org/2000/svg">
<g clip-path="url(#clip0_1123_642)">
<path d="M15.849 18.7199V29.9999H11.189V18.7199L0.668945 1.1999H4.76894C5.18228 1.1999 5.50894 1.2999 5.74894 1.4999C5.98894 1.6999 6.18894 1.95323 6.34894 2.2599L12.249 12.5799C12.5156 13.0999 12.7556 13.5932 12.969 14.0599C13.1956 14.5266 13.3956 14.9866 13.569 15.4399C13.7156 14.9732 13.8956 14.5132 14.109 14.0599C14.3223 13.5932 14.5623 13.0999 14.829 12.5799L20.689 2.2599C20.8223 1.99323 21.0156 1.75323 21.269 1.5399C21.5223 1.31323 21.849 1.1999 22.249 1.1999H26.369L15.849 18.7199ZM33.2446 9.2799C34.7513 9.2799 36.1113 9.52657 37.3246 10.0199C38.5513 10.5132 39.5913 11.2132 40.4446 12.1199C41.3113 13.0266 41.9779 14.1266 42.4446 15.4199C42.9113 16.7132 43.1446 18.1666 43.1446 19.7799C43.1446 21.3932 42.9113 22.8466 42.4446 24.1399C41.9779 25.4332 41.3113 26.5399 40.4446 27.4599C39.5913 28.3666 38.5513 29.0666 37.3246 29.5599C36.1113 30.0532 34.7513 30.2999 33.2446 30.2999C31.7246 30.2999 30.3513 30.0532 29.1246 29.5599C27.9113 29.0666 26.8713 28.3666 26.0046 27.4599C25.1379 26.5399 24.4713 25.4332 24.0046 24.1399C23.5379 22.8466 23.3046 21.3932 23.3046 19.7799C23.3046 18.1666 23.5379 16.7132 24.0046 15.4199C24.4713 14.1266 25.1379 13.0266 26.0046 12.1199C26.8713 11.2132 27.9113 10.5132 29.1246 10.0199C30.3513 9.52657 31.7246 9.2799 33.2446 9.2799ZM33.2446 26.9399C35.0846 26.9399 36.4513 26.3266 37.3446 25.0999C38.2513 23.8599 38.7046 22.0932 38.7046 19.7999C38.7046 17.5066 38.2513 15.7399 37.3446 14.4999C36.4513 13.2466 35.0846 12.6199 33.2446 12.6199C31.3779 12.6199 29.9913 13.2466 29.0846 14.4999C28.1779 15.7399 27.7246 17.5066 27.7246 19.7999C27.7246 22.0932 28.1779 23.8599 29.0846 25.0999C29.9913 26.3266 31.3779 26.9399 33.2446 26.9399ZM51.5762 0.399902V17.5599H52.4962C52.7895 17.5599 53.0295 17.5199 53.2162 17.4399C53.4028 17.3599 53.5962 17.1932 53.7962 16.9399L59.5162 10.3999C59.7162 10.1332 59.9362 9.93323 60.1762 9.7999C60.4162 9.66657 60.7228 9.5999 61.0962 9.5999H64.9962L58.1162 17.3599C57.7162 17.8799 57.2762 18.2932 56.7962 18.5999C57.0628 18.7866 57.2962 18.9999 57.4962 19.2399C57.6962 19.4666 57.8895 19.7266 58.0762 20.0199L65.4162 29.9999H61.5762C61.2295 29.9999 60.9295 29.9466 60.6762 29.8399C60.4362 29.7199 60.2228 29.5066 60.0362 29.1999L54.1362 21.1999C53.9362 20.8932 53.7362 20.6999 53.5362 20.6199C53.3362 20.5266 53.0362 20.4799 52.6362 20.4799H51.5762V29.9999H47.2762V0.399902H51.5762ZM72.2346 13.3799C72.8746 12.0866 73.6479 11.0732 74.5546 10.3399C75.4613 9.59323 76.5479 9.2199 77.8146 9.2199C78.2546 9.2199 78.6679 9.27323 79.0546 9.3799C79.4413 9.47323 79.7879 9.6199 80.0946 9.8199L79.7946 13.0599C79.7413 13.2866 79.6546 13.4466 79.5346 13.5399C79.4279 13.6199 79.2813 13.6599 79.0946 13.6599C78.8946 13.6599 78.6079 13.6266 78.2346 13.5599C77.8613 13.4799 77.4679 13.4399 77.0546 13.4399C76.4546 13.4399 75.9213 13.5266 75.4546 13.6999C75.0013 13.8732 74.5879 14.1266 74.2146 14.4599C73.8546 14.7932 73.5346 15.1999 73.2546 15.6799C72.9746 16.1599 72.7146 16.7066 72.4746 17.3199V29.9999H68.1746V9.5999H70.6746C71.1279 9.5999 71.4413 9.68656 71.6146 9.8599C71.7879 10.0199 71.9079 10.3066 71.9746 10.7199L72.2346 13.3799ZM80.7177 27.5199C80.7177 27.1332 80.7844 26.7732 80.9177 26.4399C81.0644 26.0932 81.2577 25.7932 81.4977 25.5399C81.751 25.2866 82.0444 25.0866 82.3777 24.9399C82.7244 24.7932 83.091 24.7199 83.4777 24.7199C83.8644 24.7199 84.2244 24.7932 84.5577 24.9399C84.9044 25.0866 85.2044 25.2866 85.4577 25.5399C85.711 25.7932 85.911 26.0932 86.0577 26.4399C86.2044 26.7732 86.2777 27.1332 86.2777 27.5199C86.2777 27.9199 86.2044 28.2866 86.0577 28.6199C85.911 28.9532 85.711 29.2466 85.4577 29.4999C85.2044 29.7532 84.9044 29.9466 84.5577 30.0799C84.2244 30.2266 83.8644 30.2999 83.4777 30.2999C83.091 30.2999 82.7244 30.2266 82.3777 30.0799C82.0444 29.9466 81.751 29.7532 81.4977 29.4999C81.2577 29.2466 81.0644 28.9532 80.9177 28.6199C80.7844 28.2866 80.7177 27.9199 80.7177 27.5199Z" fill="black"/>
</g>
<defs>
<clipPath id="clip0_1123_642">
<rect width="87" height="31" fill="white"/>
</clipPath>
</defs>
</svg>
